<svg width="136" height="115" viewBox="0 0 136 115" fill="none" xmlns="http://www.w3.org/2000/svg">
<path d="M20.2278 55.2794L18.7564 55.6085C14.926 56.4653 11.8809 58.4007 9.52481 61.4586C7.1495 64.5414 5.96897 68.0208 5.96875 71.9853L20.2278 55.2794ZM20.2278 55.2794L20.6232 53.8244M20.2278 55.2794L20.6232 53.8244M20.6232 53.8244C21.9258 49.0308 24.5038 45.1957 28.3951 42.2383C32.292 39.2767 36.6736 37.8051 41.6243 37.8051C47.7363 37.8051 52.8354 39.9058 57.0716 44.142C61.3078 48.3782 63.4072 53.4759 63.4051 59.585L63.4044 61.8127M20.6232 53.8244L63.4044 61.8127M63.4044 61.8127L65.6172 62.0692M63.4044 61.8127L65.6172 62.0692M65.6172 62.0692C69.0006 62.4615 71.7439 63.8915 73.9625 66.4026C76.1887 68.9222 77.2818 71.815 77.2799 75.1935V75.195M65.6172 62.0692L77.2799 75.195M77.2799 75.195C77.2799 78.8757 76.0207 81.9239 73.4605 84.486C70.9014 87.0471 67.8544 88.306 64.1721 88.304H64.1708M77.2799 75.195L64.1708 88.304M64.1708 88.304H22.5465C17.9318 88.304 14.0666 86.7337 10.8109 83.5527M64.1708 88.304L10.8109 83.5527M10.8109 83.5527C7.56973 80.3859 5.97102 76.5812 5.96875 71.9864L10.8109 83.5527Z" fill="#006D77" stroke="white" stroke-width="5"/>
<path d="M72.9798 65.1703L71.5083 65.4994C67.6779 66.3562 64.6328 68.2917 62.2768 71.3495C59.9014 74.4324 58.7209 77.9117 58.7207 81.8762L72.9798 65.1703ZM72.9798 65.1703L73.3751 63.7153M72.9798 65.1703L73.3751 63.7153M73.3751 63.7153C74.6777 58.9217 77.2558 55.0866 81.147 52.1293C85.0439 49.1676 89.4255 47.696 94.3763 47.696C100.488 47.696 105.587 49.7968 109.824 54.0329C114.06 58.2691 116.159 63.3668 116.157 69.4759L116.156 71.7036M73.3751 63.7153L116.156 71.7036M116.156 71.7036L118.369 71.9602M116.156 71.7036L118.369 71.9602M118.369 71.9602C121.753 72.3524 124.496 73.7825 126.714 76.2935C128.941 78.8131 130.034 81.7059 130.032 85.0844V85.0859M118.369 71.9602L130.032 85.0859M130.032 85.0859C130.032 88.7666 128.773 91.8148 126.212 94.377C123.653 96.938 120.606 98.1969 116.924 98.195H116.923M130.032 85.0859L116.923 98.195M116.923 98.195H75.2985C70.6837 98.195 66.8185 96.6246 63.5628 93.4436M116.923 98.195L63.5628 93.4436M63.5628 93.4436C60.3217 90.2769 58.723 86.4721 58.7207 81.8773L63.5628 93.4436Z" fill="#006D77" stroke="white" stroke-width="5"/>
<path d="M69.6829 33.8491L68.2115 34.1782C64.3811 35.035 61.3359 36.9704 58.9799 40.0283C56.6046 43.1111 55.424 46.5905 55.4238 50.555L69.6829 33.8491ZM69.6829 33.8491L70.0783 32.3941M69.6829 33.8491L70.0783 32.3941M70.0783 32.3941C71.3809 27.6005 73.9589 23.7654 77.8502 20.808C81.7471 17.8464 86.1287 16.3748 91.0794 16.3748C97.1913 16.3748 102.291 18.4755 106.527 22.7117C110.763 26.9479 112.862 32.0456 112.86 38.1547L112.859 40.3824M70.0783 32.3941L112.859 40.3824M112.859 40.3824L115.072 40.6389M112.859 40.3824L115.072 40.6389M115.072 40.6389C118.456 41.0312 121.199 42.4612 123.418 44.9723C125.644 47.4919 126.737 50.3847 126.735 53.7632V53.7647M115.072 40.6389L126.735 53.7647M126.735 53.7647C126.735 57.4454 125.476 60.4936 122.916 63.0557C120.356 65.6168 117.31 66.8757 113.627 66.8737H113.626M126.735 53.7647L113.626 66.8737M113.626 66.8737H72.0016C67.3868 66.8737 63.5216 65.3034 60.2659 62.1224M113.626 66.8737L60.2659 62.1224M60.2659 62.1224C57.0248 58.9556 55.4261 55.1509 55.4238 50.5561L60.2659 62.1224Z" fill="#006D77" stroke="white" stroke-width="5"/>
</svg>
