<svg width="56" height="56" viewBox="0 0 56 56" fill="none" xmlns="http://www.w3.org/2000/svg">
<path d="M37.3333 4.6665H18.6667C17.429 4.6665 16.242 5.15817 15.3668 6.03334C14.4917 6.90851 14 8.09549 14 9.33317V46.6665C14 47.9042 14.4917 49.0912 15.3668 49.9663C16.242 50.8415 17.429 51.3332 18.6667 51.3332H37.3333C38.571 51.3332 39.758 50.8415 40.6332 49.9663C41.5083 49.0912 42 47.9042 42 46.6665V9.33317C42 8.09549 41.5083 6.90851 40.6332 6.03334C39.758 5.15817 38.571 4.6665 37.3333 4.6665ZM30.3333 48.9998H25.6667V46.6665H30.3333V48.9998ZM37.3333 44.3332H18.6667V11.6665H37.3333V44.3332Z" fill="black"/>
</svg>
