<svg width="24" height="25" viewBox="0 0 24 25" fill="none" xmlns="http://www.w3.org/2000/svg">
<path d="M19.0508 5.74092C18.134 4.82516 17.042 4.09908 15.8384 3.60503C14.6349 3.11098 13.3439 2.85885 12.0408 2.86334C6.58078 2.86334 2.13078 7.26376 2.13078 12.6629C2.13078 14.3934 2.59078 16.0745 3.45078 17.5578L2.05078 22.6405L7.30078 21.2759C8.75078 22.0571 10.3808 22.4724 12.0408 22.4724C17.5008 22.4724 21.9508 18.072 21.9508 12.6728C21.9508 10.0523 20.9208 7.59008 19.0508 5.74092ZM12.0408 20.8111C10.5608 20.8111 9.11078 20.4156 7.84078 19.6739L7.54078 19.4959L4.42078 20.3068L5.25078 17.3007L5.05078 16.9941C4.22853 15.6957 3.79192 14.1949 3.79078 12.6629C3.79078 8.17351 7.49078 4.51473 12.0308 4.51473C14.2308 4.51473 16.3008 5.36515 17.8508 6.90777C18.6183 7.66322 19.2265 8.56179 19.6402 9.55141C20.0539 10.541 20.2648 11.602 20.2608 12.6728C20.2808 17.1622 16.5808 20.8111 12.0408 20.8111ZM16.5608 14.7197C16.3108 14.6011 15.0908 14.0078 14.8708 13.9188C14.6408 13.8397 14.4808 13.8001 14.3108 14.0374C14.1408 14.2846 13.6708 14.8384 13.5308 14.9966C13.3908 15.1647 13.2408 15.1845 12.9908 15.056C12.7408 14.9373 11.9408 14.6703 11.0008 13.8397C10.2608 13.187 9.77078 12.386 9.62078 12.1388C9.48078 11.8916 9.60078 11.7631 9.73078 11.6345C9.84078 11.5257 9.98078 11.3477 10.1008 11.2093C10.2208 11.0709 10.2708 10.9621 10.3508 10.8039C10.4308 10.6358 10.3908 10.4973 10.3308 10.3787C10.2708 10.26 9.77078 9.05359 9.57078 8.55916C9.37078 8.08451 9.16078 8.14384 9.01078 8.13395H8.53078C8.36078 8.13395 8.10078 8.19328 7.87078 8.4405C7.65078 8.68771 7.01078 9.28103 7.01078 10.4874C7.01078 11.6938 7.90078 12.8607 8.02078 13.0189C8.14078 13.187 9.77078 15.6592 12.2508 16.7172C12.8408 16.9743 13.3008 17.1227 13.6608 17.2314C14.2508 17.4193 14.7908 17.3897 15.2208 17.3303C15.7008 17.2611 16.6908 16.737 16.8908 16.1635C17.1008 15.5899 17.1008 15.1054 17.0308 14.9966C16.9608 14.8879 16.8108 14.8384 16.5608 14.7197Z" fill="black"/>
</svg>
