<svg width="24" height="25" viewBox="0 0 24 25" fill="none" xmlns="http://www.w3.org/2000/svg">
<path d="M3 11.7634C3 8.03442 3 6.16943 4.172 5.01148C5.343 3.85254 7.229 3.85254 11 3.85254H13C16.771 3.85254 18.657 3.85254 19.828 5.01148C21 6.16943 21 8.03442 21 11.7634V13.7411C21 17.4701 21 19.3351 19.828 20.493C18.657 21.652 16.771 21.652 13 21.652H11C7.229 21.652 5.343 21.652 4.172 20.493C3 19.3351 3 17.4701 3 13.7411V11.7634Z" stroke="black" stroke-width="2"/>
<path d="M16.5 9.78591C17.3284 9.78591 18 9.12182 18 8.30262C18 7.48343 17.3284 6.81934 16.5 6.81934C15.6716 6.81934 15 7.48343 15 8.30262C15 9.12182 15.6716 9.78591 16.5 9.78591Z" fill="black"/>
<path d="M12 15.7188C13.6569 15.7188 15 14.3906 15 12.7522C15 11.1138 13.6569 9.78564 12 9.78564C10.3431 9.78564 9 11.1138 9 12.7522C9 14.3906 10.3431 15.7188 12 15.7188Z" stroke="black" stroke-width="2"/>
</svg>
