<svg width="56" height="56" viewBox="0 0 56 56" fill="none" xmlns="http://www.w3.org/2000/svg">
<path d="M9.33268 46.6668C8.04935 46.6668 6.95113 46.2103 6.03802 45.2972C5.1249 44.3841 4.66757 43.285 4.66602 42.0002V14.0002C4.66602 12.7168 5.12335 11.6186 6.03802 10.7055C6.95268 9.79238 8.0509 9.33505 9.33268 9.3335H46.666C47.9493 9.3335 49.0483 9.79083 49.963 10.7055C50.8777 11.6202 51.3342 12.7184 51.3327 14.0002V42.0002C51.3327 43.2835 50.8761 44.3825 49.963 45.2972C49.0499 46.2118 47.9509 46.6684 46.666 46.6668H9.33268ZM27.9993 30.3335L9.33268 18.6668V42.0002H46.666V18.6668L27.9993 30.3335ZM27.9993 25.6668L46.666 14.0002H9.33268L27.9993 25.6668ZM9.33268 18.6668V14.0002V42.0002V18.6668Z" fill="black"/>
</svg>
