<svg width="24" height="25" viewBox="0 0 24 25" fill="none" xmlns="http://www.w3.org/2000/svg">
<g clip-path="url(#clip0_124_799)">
<path d="M12 4.84131C12.855 4.84131 13.732 4.86306 14.582 4.89866L15.586 4.94613L16.547 5.00249L17.447 5.06281L18.269 5.1261C19.161 5.19362 20.0004 5.57004 20.6395 6.18916C21.2786 6.80828 21.6764 7.63042 21.763 8.51096L21.803 8.93122L21.878 9.83109C21.948 10.7636 22 11.7801 22 12.7522C22 13.7242 21.948 14.7408 21.878 15.6733L21.803 16.5731C21.79 16.7175 21.777 16.8569 21.763 16.9934C21.6764 17.8741 21.2784 18.6963 20.6391 19.3155C19.9999 19.9346 19.1602 20.3109 18.268 20.3782L17.448 20.4405L16.548 20.5019L15.586 20.5582L14.582 20.6057C13.7218 20.6426 12.861 20.6618 12 20.663C11.139 20.6618 10.2782 20.6426 9.418 20.6057L8.414 20.5582L7.453 20.5019L6.553 20.4405L5.731 20.3782C4.83895 20.3107 3.99955 19.9343 3.36047 19.3152C2.72139 18.6961 2.32357 17.8739 2.237 16.9934L2.197 16.5731L2.122 15.6733C2.04554 14.7013 2.00484 13.727 2 12.7522C2 11.7801 2.052 10.7636 2.122 9.83109L2.197 8.93122C2.21 8.78685 2.223 8.64742 2.237 8.51096C2.32354 7.63058 2.72122 6.80856 3.36009 6.18946C3.99897 5.57037 4.83813 5.19384 5.73 5.1261L6.551 5.06281L7.451 5.00249L8.413 4.94613L9.417 4.89866C10.2775 4.86171 11.1387 4.84259 12 4.84131ZM12 6.81902C11.175 6.81902 10.326 6.84078 9.5 6.8744L8.522 6.92088L7.583 6.97526L6.701 7.0346L5.893 7.09689C5.46833 7.12669 5.06804 7.3042 4.76309 7.59797C4.45814 7.89174 4.26822 8.28279 4.227 8.70181C4.11 9.89734 4 11.3856 4 12.7522C4 14.1188 4.11 15.607 4.227 16.8025C4.312 17.6648 5.004 18.3353 5.893 18.4075L6.701 18.4688L7.583 18.5281L8.522 18.5835L9.5 18.6299C10.326 18.6636 11.175 18.6853 12 18.6853C12.825 18.6853 13.674 18.6636 14.5 18.6299L15.478 18.5835L16.417 18.5291L17.299 18.4697L18.107 18.4075C18.5317 18.3777 18.932 18.2001 19.2369 17.9064C19.5419 17.6126 19.7318 17.2215 19.773 16.8025C19.89 15.607 20 14.1188 20 12.7522C20 11.3856 19.89 9.89734 19.773 8.70181C19.7318 8.28279 19.5419 7.89174 19.2369 7.59797C18.932 7.3042 18.5317 7.12669 18.107 7.09689L17.299 7.03558L16.417 6.97625L15.478 6.92088L14.5 6.8744C13.6671 6.83897 12.8336 6.8205 12 6.81902ZM10 10.3542C9.99994 10.2575 10.0237 10.1623 10.0694 10.0769C10.115 9.9914 10.181 9.91824 10.2618 9.86375C10.3425 9.80927 10.4354 9.77511 10.5326 9.76425C10.6297 9.75338 10.728 9.76614 10.819 9.80142L10.9 9.84097L15.1 12.238C15.1836 12.2857 15.2544 12.3527 15.3063 12.4332C15.3581 12.5137 15.3896 12.6055 15.3979 12.7006C15.4062 12.7957 15.3912 12.8914 15.3542 12.9796C15.3171 13.0678 15.2591 13.1458 15.185 13.207L15.1 13.2664L10.9 15.6644C10.8154 15.7128 10.72 15.7401 10.6223 15.7438C10.5246 15.7475 10.4274 15.7275 10.3393 15.6856C10.2511 15.6437 10.1747 15.5811 10.1166 15.5033C10.0585 15.4255 10.0205 15.3348 10.006 15.2392L10 15.1502V10.3542Z" fill="black"/>
</g>
<defs>
<clipPath id="clip0_124_799">
<rect width="24" height="23.7326" fill="white" transform="translate(0 0.885742)"/>
</clipPath>
</defs>
</svg>
