<svg width="24" height="25" viewBox="0 0 24 25" fill="none" xmlns="http://www.w3.org/2000/svg">
<g clip-path="url(#clip0_124_795)">
<path fill-rule="evenodd" clip-rule="evenodd" d="M4 12.7519C4.00014 11.2295 4.44451 9.73945 5.27979 8.4606C6.11506 7.18174 7.30576 6.16838 8.70901 5.54211C10.1123 4.91584 11.6684 4.70325 13.1908 4.92987C14.7132 5.15648 16.1372 5.81267 17.2918 6.81969C18.4464 7.82672 19.2826 9.1418 19.7002 10.6071C20.1177 12.0725 20.0988 13.6258 19.6457 15.0808C19.1926 16.5358 18.3246 17.8305 17.1458 18.8098C15.967 19.789 14.5275 20.4111 13 20.6014V14.7296H15C15.2652 14.7296 15.5196 14.6254 15.7071 14.4399C15.8946 14.2545 16 14.003 16 13.7407C16 13.4785 15.8946 13.2269 15.7071 13.0415C15.5196 12.856 15.2652 12.7519 15 12.7519H13V10.7741C13 10.5119 13.1054 10.2604 13.2929 10.0749C13.4804 9.88947 13.7348 9.78529 14 9.78529H14.5C14.7652 9.78529 15.0196 9.6811 15.2071 9.49566C15.3946 9.31021 15.5 9.05869 15.5 8.79643C15.5 8.53417 15.3946 8.28265 15.2071 8.0972C15.0196 7.91175 14.7652 7.80757 14.5 7.80757H14C13.2044 7.80757 12.4413 8.12012 11.8787 8.67646C11.3161 9.2328 11 9.98736 11 10.7741V12.7519H9C8.73478 12.7519 8.48043 12.856 8.29289 13.0415C8.10536 13.2269 8 13.4785 8 13.7407C8 14.003 8.10536 14.2545 8.29289 14.4399C8.48043 14.6254 8.73478 14.7296 9 14.7296H11V20.6014C9.0667 20.3603 7.28882 19.4299 6 17.9846C4.71119 16.5394 4.00003 14.6788 4 12.7519ZM12 22.6404C17.523 22.6404 22 18.2133 22 12.7519C22 7.2904 17.523 2.86328 12 2.86328C6.477 2.86328 2 7.2904 2 12.7519C2 18.2133 6.477 22.6404 12 22.6404Z" fill="black"/>
</g>
<defs>
<clipPath id="clip0_124_795">
<rect width="24" height="23.7326" fill="white" transform="translate(0 0.885742)"/>
</clipPath>
</defs>
</svg>
