<svg width="90" height="90" viewBox="0 0 90 90" fill="none" xmlns="http://www.w3.org/2000/svg">
<g clip-path="url(#clip0_33_263)">
<path d="M45 7.5C48.36 7.5 51.615 7.9425 54.7125 8.77125L46.74 16.74C46.1352 17.3472 45.6017 18.0216 45.15 18.75H45C39.8082 18.75 34.7331 20.2895 30.4163 23.1739C26.0995 26.0583 22.735 30.158 20.7482 34.9546C18.7614 39.7511 18.2415 45.0291 19.2544 50.1211C20.2672 55.2131 22.7673 59.8904 26.4384 63.5616C30.1096 67.2327 34.7869 69.7328 39.8789 70.7456C44.9709 71.7585 50.2489 71.2386 55.0454 69.2518C59.842 67.265 63.9417 63.9005 66.8261 59.5837C69.7105 55.2669 71.25 50.1918 71.25 45V44.85C71.97 44.4 72.645 43.8713 73.2562 43.2562L81.2287 35.2875C82.0575 38.385 82.5 41.64 82.5 45C82.5 65.7113 65.7113 82.5 45 82.5C24.2888 82.5 7.5 65.7113 7.5 45C7.5 24.2888 24.2888 7.5 45 7.5ZM43.4475 26.3138C43.4475 29.505 43.29 32.7413 43.4625 35.9288L41.4375 37.9538C40.7409 38.6503 40.1884 39.4773 39.8114 40.3874C39.4344 41.2975 39.2404 42.273 39.2404 43.2581C39.2404 44.2432 39.4344 45.2187 39.8114 46.1288C40.1884 47.039 40.7409 47.8659 41.4375 48.5625C42.1341 49.2591 42.961 49.8116 43.8712 50.1886C44.7813 50.5656 45.7568 50.7596 46.7419 50.7596C47.727 50.7596 48.7025 50.5656 49.6126 50.1886C50.5227 49.8116 51.3497 49.2591 52.0462 48.5625L54.0712 46.5375C57.2587 46.71 60.4912 46.5525 63.6862 46.5525C63.39 50.1163 62.0808 53.521 59.9131 56.3652C57.7454 59.2093 54.8095 61.3742 51.4517 62.6046C48.094 63.835 44.4544 64.0795 40.9623 63.3092C37.4701 62.539 34.2711 60.7862 31.7424 58.2576C29.2138 55.7289 27.461 52.5299 26.6908 49.0377C25.9205 45.5456 26.165 41.906 27.3954 38.5483C28.6258 35.1905 30.7907 32.2546 33.6348 30.0869C36.479 27.9192 39.8837 26.61 43.4475 26.3138ZM69.39 7.97625C70.0745 8.26005 70.6595 8.74026 71.0713 9.35629C71.4831 9.97231 71.7032 10.6965 71.7038 11.4375V18.3H78.5625C79.3041 18.3002 80.0289 18.5202 80.6455 18.9322C81.262 19.3443 81.7425 19.9299 82.0263 20.615C82.3101 21.3002 82.3843 22.054 82.2397 22.7814C82.0951 23.5087 81.738 24.1768 81.2137 24.7013L67.95 37.95C67.2469 38.6533 66.2932 39.0485 65.2988 39.0487H56.25L49.395 45.9075C48.6913 46.6112 47.737 47.0065 46.7419 47.0065C45.7468 47.0065 44.7924 46.6112 44.0887 45.9075C43.3851 45.2038 42.9898 44.2495 42.9898 43.2544C42.9898 42.2593 43.3851 41.3049 44.0887 40.6012L50.9475 33.75V24.6975C50.9471 24.2045 51.044 23.7162 51.2325 23.2606C51.421 22.805 51.6976 22.3911 52.0462 22.0425L65.3025 8.78625C65.8269 8.2615 66.4952 7.90409 67.2228 7.75924C67.9504 7.61439 68.7046 7.68861 69.39 7.9725" fill="white"/>
</g>
<defs>
<clipPath id="clip0_33_263">
<rect width="90" height="90" fill="white"/>
</clipPath>
</defs>
</svg>
